<mxfile host="Electron" modified="2024-05-26T19:09:28.224Z" agent="Mozilla/5.0 (Windows NT 10.0; Win64; x64) AppleWebKit/537.36 (KHTML, like Gecko) draw.io/24.4.6 Chrome/124.0.6367.207 Electron/30.0.6 Safari/537.36" etag="TOuC9LVmmF24R8BeRvFF" version="24.4.6" type="device">
  <diagram name="Page-1" id="kTOo4FLH9kmyIqTZ6w-W">
    <mxGraphModel dx="1313" dy="1876" grid="1" gridSize="10" guides="1" tooltips="1" connect="1" arrows="1" fold="1" page="1" pageScale="1" pageWidth="850" pageHeight="1100" math="0" shadow="0">
      <root>
        <mxCell id="0" />
        <mxCell id="1" parent="0" />
        <mxCell id="WXY6TnsKW-2NLoE3WzeD-3" value="" style="edgeStyle=orthogonalEdgeStyle;rounded=0;orthogonalLoop=1;jettySize=auto;html=1;" parent="1" source="WXY6TnsKW-2NLoE3WzeD-1" target="WXY6TnsKW-2NLoE3WzeD-2" edge="1">
          <mxGeometry relative="1" as="geometry" />
        </mxCell>
        <mxCell id="WXY6TnsKW-2NLoE3WzeD-1" value="Trash" style="rounded=0;whiteSpace=wrap;html=1;" parent="1" vertex="1">
          <mxGeometry x="230" y="-160" width="120" height="60" as="geometry" />
        </mxCell>
        <mxCell id="WXY6TnsKW-2NLoE3WzeD-5" value="" style="edgeStyle=orthogonalEdgeStyle;rounded=0;orthogonalLoop=1;jettySize=auto;html=1;" parent="1" source="WXY6TnsKW-2NLoE3WzeD-2" target="WXY6TnsKW-2NLoE3WzeD-4" edge="1">
          <mxGeometry relative="1" as="geometry" />
        </mxCell>
        <mxCell id="WXY6TnsKW-2NLoE3WzeD-2" value="Fishing" style="rounded=0;whiteSpace=wrap;html=1;" parent="1" vertex="1">
          <mxGeometry x="230" y="190" width="120" height="60" as="geometry" />
        </mxCell>
        <mxCell id="WXY6TnsKW-2NLoE3WzeD-23" value="" style="edgeStyle=orthogonalEdgeStyle;rounded=0;orthogonalLoop=1;jettySize=auto;html=1;" parent="1" source="WXY6TnsKW-2NLoE3WzeD-4" target="WXY6TnsKW-2NLoE3WzeD-22" edge="1">
          <mxGeometry relative="1" as="geometry" />
        </mxCell>
        <mxCell id="WXY6TnsKW-2NLoE3WzeD-4" value="Inventory" style="rounded=0;whiteSpace=wrap;html=1;" parent="1" vertex="1">
          <mxGeometry x="230" y="540" width="120" height="60" as="geometry" />
        </mxCell>
        <mxCell id="WXY6TnsKW-2NLoE3WzeD-20" style="edgeStyle=orthogonalEdgeStyle;rounded=0;orthogonalLoop=1;jettySize=auto;html=1;entryX=1;entryY=0.5;entryDx=0;entryDy=0;exitX=0;exitY=0.5;exitDx=0;exitDy=0;dashed=1;dashPattern=12 12;" parent="1" source="WXY6TnsKW-2NLoE3WzeD-6" target="WXY6TnsKW-2NLoE3WzeD-16" edge="1">
          <mxGeometry relative="1" as="geometry">
            <Array as="points">
              <mxPoint x="710" y="460" />
              <mxPoint x="710" y="410" />
            </Array>
          </mxGeometry>
        </mxCell>
        <mxCell id="WXY6TnsKW-2NLoE3WzeD-6" value="Durability" style="rounded=0;whiteSpace=wrap;html=1;" parent="1" vertex="1">
          <mxGeometry x="740" y="430" width="120" height="60" as="geometry" />
        </mxCell>
        <mxCell id="WXY6TnsKW-2NLoE3WzeD-36" style="edgeStyle=orthogonalEdgeStyle;rounded=0;orthogonalLoop=1;jettySize=auto;html=1;entryX=1;entryY=0.5;entryDx=0;entryDy=0;" parent="1" source="WXY6TnsKW-2NLoE3WzeD-8" target="WXY6TnsKW-2NLoE3WzeD-34" edge="1">
          <mxGeometry relative="1" as="geometry" />
        </mxCell>
        <mxCell id="WXY6TnsKW-2NLoE3WzeD-8" value="Endurance" style="rounded=0;whiteSpace=wrap;html=1;" parent="1" vertex="1">
          <mxGeometry x="760" y="70" width="120" height="60" as="geometry" />
        </mxCell>
        <mxCell id="WXY6TnsKW-2NLoE3WzeD-11" style="edgeStyle=orthogonalEdgeStyle;rounded=0;orthogonalLoop=1;jettySize=auto;html=1;dashed=1;endArrow=none;endFill=0;entryX=1;entryY=0.5;entryDx=0;entryDy=0;dashPattern=12 12;" parent="1" source="WXY6TnsKW-2NLoE3WzeD-10" target="WXY6TnsKW-2NLoE3WzeD-16" edge="1">
          <mxGeometry relative="1" as="geometry">
            <mxPoint x="710" y="350" as="targetPoint" />
            <Array as="points">
              <mxPoint x="710" y="380" />
              <mxPoint x="710" y="410" />
            </Array>
          </mxGeometry>
        </mxCell>
        <mxCell id="WXY6TnsKW-2NLoE3WzeD-10" value="Range" style="rounded=0;whiteSpace=wrap;html=1;" parent="1" vertex="1">
          <mxGeometry x="740" y="350" width="120" height="60" as="geometry" />
        </mxCell>
        <mxCell id="WXY6TnsKW-2NLoE3WzeD-13" style="edgeStyle=orthogonalEdgeStyle;rounded=0;orthogonalLoop=1;jettySize=auto;html=1;dashed=1;entryX=1;entryY=0.5;entryDx=0;entryDy=0;" parent="1" source="WXY6TnsKW-2NLoE3WzeD-12" target="WXY6TnsKW-2NLoE3WzeD-4" edge="1">
          <mxGeometry relative="1" as="geometry">
            <mxPoint x="440" y="590" as="targetPoint" />
          </mxGeometry>
        </mxCell>
        <mxCell id="WXY6TnsKW-2NLoE3WzeD-12" value="Container Capacity" style="rounded=0;whiteSpace=wrap;html=1;" parent="1" vertex="1">
          <mxGeometry x="470" y="500" width="120" height="60" as="geometry" />
        </mxCell>
        <mxCell id="WXY6TnsKW-2NLoE3WzeD-17" style="edgeStyle=orthogonalEdgeStyle;rounded=0;orthogonalLoop=1;jettySize=auto;html=1;entryX=1;entryY=0.5;entryDx=0;entryDy=0;" parent="1" source="WXY6TnsKW-2NLoE3WzeD-16" target="WXY6TnsKW-2NLoE3WzeD-2" edge="1">
          <mxGeometry relative="1" as="geometry" />
        </mxCell>
        <mxCell id="WXY6TnsKW-2NLoE3WzeD-16" value="Tools" style="shape=parallelogram;html=1;strokeWidth=2;perimeter=parallelogramPerimeter;whiteSpace=wrap;rounded=1;arcSize=12;size=0.23;" parent="1" vertex="1">
          <mxGeometry x="480" y="380" width="100" height="60" as="geometry" />
        </mxCell>
        <mxCell id="WXY6TnsKW-2NLoE3WzeD-19" style="edgeStyle=orthogonalEdgeStyle;rounded=0;orthogonalLoop=1;jettySize=auto;html=1;entryX=1;entryY=0.5;entryDx=0;entryDy=0;" parent="1" source="WXY6TnsKW-2NLoE3WzeD-18" target="WXY6TnsKW-2NLoE3WzeD-2" edge="1">
          <mxGeometry relative="1" as="geometry" />
        </mxCell>
        <mxCell id="WXY6TnsKW-2NLoE3WzeD-18" value="Bait" style="shape=parallelogram;html=1;strokeWidth=2;perimeter=parallelogramPerimeter;whiteSpace=wrap;rounded=1;arcSize=12;size=0.23;" parent="1" vertex="1">
          <mxGeometry x="480" y="190" width="100" height="60" as="geometry" />
        </mxCell>
        <mxCell id="WXY6TnsKW-2NLoE3WzeD-31" value="" style="edgeStyle=orthogonalEdgeStyle;rounded=0;orthogonalLoop=1;jettySize=auto;html=1;" parent="1" source="WXY6TnsKW-2NLoE3WzeD-22" target="WXY6TnsKW-2NLoE3WzeD-30" edge="1">
          <mxGeometry relative="1" as="geometry" />
        </mxCell>
        <mxCell id="WXY6TnsKW-2NLoE3WzeD-22" value="Item" style="rounded=0;whiteSpace=wrap;html=1;" parent="1" vertex="1">
          <mxGeometry x="230" y="890" width="120" height="60" as="geometry" />
        </mxCell>
        <mxCell id="WXY6TnsKW-2NLoE3WzeD-27" style="edgeStyle=orthogonalEdgeStyle;rounded=0;orthogonalLoop=1;jettySize=auto;html=1;dashed=1;entryX=1;entryY=0.5;entryDx=0;entryDy=0;" parent="1" source="WXY6TnsKW-2NLoE3WzeD-28" target="WXY6TnsKW-2NLoE3WzeD-4" edge="1">
          <mxGeometry relative="1" as="geometry">
            <mxPoint x="360" y="710" as="targetPoint" />
          </mxGeometry>
        </mxCell>
        <mxCell id="WXY6TnsKW-2NLoE3WzeD-28" value="Container Capacity" style="rounded=0;whiteSpace=wrap;html=1;" parent="1" vertex="1">
          <mxGeometry x="470" y="580" width="120" height="60" as="geometry" />
        </mxCell>
        <mxCell id="WXY6TnsKW-2NLoE3WzeD-30" value="Craft" style="rounded=0;whiteSpace=wrap;html=1;" parent="1" vertex="1">
          <mxGeometry x="230" y="1240" width="120" height="60" as="geometry" />
        </mxCell>
        <mxCell id="WXY6TnsKW-2NLoE3WzeD-33" style="edgeStyle=orthogonalEdgeStyle;rounded=0;orthogonalLoop=1;jettySize=auto;html=1;entryX=1;entryY=0.5;entryDx=0;entryDy=0;" parent="1" source="WXY6TnsKW-2NLoE3WzeD-32" target="WXY6TnsKW-2NLoE3WzeD-30" edge="1">
          <mxGeometry relative="1" as="geometry" />
        </mxCell>
        <mxCell id="WXY6TnsKW-2NLoE3WzeD-32" value="Blueprint" style="rounded=0;whiteSpace=wrap;html=1;" parent="1" vertex="1">
          <mxGeometry x="530" y="1240" width="120" height="60" as="geometry" />
        </mxCell>
        <mxCell id="WXY6TnsKW-2NLoE3WzeD-35" style="edgeStyle=orthogonalEdgeStyle;rounded=0;orthogonalLoop=1;jettySize=auto;html=1;entryX=1;entryY=0.5;entryDx=0;entryDy=0;" parent="1" source="WXY6TnsKW-2NLoE3WzeD-34" target="WXY6TnsKW-2NLoE3WzeD-2" edge="1">
          <mxGeometry relative="1" as="geometry" />
        </mxCell>
        <mxCell id="WXY6TnsKW-2NLoE3WzeD-34" value="Energy" style="shape=parallelogram;html=1;strokeWidth=2;perimeter=parallelogramPerimeter;whiteSpace=wrap;rounded=1;arcSize=12;size=0.23;" parent="1" vertex="1">
          <mxGeometry x="480" y="70" width="100" height="60" as="geometry" />
        </mxCell>
        <mxCell id="P6jtDzbjxeo_bBpYVfSY-9" value="" style="rounded=0;orthogonalLoop=1;jettySize=auto;html=1;" edge="1" parent="1" source="P6jtDzbjxeo_bBpYVfSY-1" target="P6jtDzbjxeo_bBpYVfSY-8">
          <mxGeometry relative="1" as="geometry" />
        </mxCell>
        <mxCell id="P6jtDzbjxeo_bBpYVfSY-24" style="edgeStyle=none;rounded=0;orthogonalLoop=1;jettySize=auto;html=1;exitX=0.5;exitY=1;exitDx=0;exitDy=0;strokeColor=default;align=center;verticalAlign=middle;fontFamily=Helvetica;fontSize=11;fontColor=default;labelBackgroundColor=default;endArrow=classic;" edge="1" parent="1" source="P6jtDzbjxeo_bBpYVfSY-1" target="P6jtDzbjxeo_bBpYVfSY-22">
          <mxGeometry relative="1" as="geometry" />
        </mxCell>
        <mxCell id="P6jtDzbjxeo_bBpYVfSY-1" value="Plastic Bottle" style="rounded=0;whiteSpace=wrap;html=1;fillColor=#d80073;fontColor=#ffffff;strokeColor=#A50040;" vertex="1" parent="1">
          <mxGeometry x="1120" y="150" width="120" height="60" as="geometry" />
        </mxCell>
        <mxCell id="P6jtDzbjxeo_bBpYVfSY-11" value="" style="rounded=0;orthogonalLoop=1;jettySize=auto;html=1;" edge="1" parent="1" source="P6jtDzbjxeo_bBpYVfSY-2" target="P6jtDzbjxeo_bBpYVfSY-10">
          <mxGeometry relative="1" as="geometry" />
        </mxCell>
        <mxCell id="P6jtDzbjxeo_bBpYVfSY-17" style="rounded=0;orthogonalLoop=1;jettySize=auto;html=1;exitX=0.5;exitY=1;exitDx=0;exitDy=0;" edge="1" parent="1" source="P6jtDzbjxeo_bBpYVfSY-2" target="P6jtDzbjxeo_bBpYVfSY-15">
          <mxGeometry relative="1" as="geometry" />
        </mxCell>
        <mxCell id="P6jtDzbjxeo_bBpYVfSY-2" value="Iron Pan" style="rounded=0;whiteSpace=wrap;html=1;fillColor=#d80073;fontColor=#ffffff;strokeColor=#A50040;" vertex="1" parent="1">
          <mxGeometry x="1295" y="150" width="120" height="60" as="geometry" />
        </mxCell>
        <mxCell id="P6jtDzbjxeo_bBpYVfSY-14" value="" style="rounded=0;orthogonalLoop=1;jettySize=auto;html=1;" edge="1" parent="1" source="P6jtDzbjxeo_bBpYVfSY-4" target="P6jtDzbjxeo_bBpYVfSY-13">
          <mxGeometry relative="1" as="geometry" />
        </mxCell>
        <mxCell id="P6jtDzbjxeo_bBpYVfSY-4" value="Old Tire" style="rounded=0;whiteSpace=wrap;html=1;fillColor=#d80073;fontColor=#ffffff;strokeColor=#A50040;" vertex="1" parent="1">
          <mxGeometry x="1480" y="150" width="120" height="60" as="geometry" />
        </mxCell>
        <mxCell id="P6jtDzbjxeo_bBpYVfSY-20" style="edgeStyle=none;rounded=0;orthogonalLoop=1;jettySize=auto;html=1;strokeColor=default;align=center;verticalAlign=middle;fontFamily=Helvetica;fontSize=11;fontColor=default;labelBackgroundColor=default;endArrow=classic;exitX=0.5;exitY=1;exitDx=0;exitDy=0;" edge="1" parent="1" source="P6jtDzbjxeo_bBpYVfSY-5" target="P6jtDzbjxeo_bBpYVfSY-19">
          <mxGeometry relative="1" as="geometry" />
        </mxCell>
        <mxCell id="P6jtDzbjxeo_bBpYVfSY-25" style="edgeStyle=none;rounded=0;orthogonalLoop=1;jettySize=auto;html=1;exitX=0.5;exitY=1;exitDx=0;exitDy=0;strokeColor=default;align=center;verticalAlign=middle;fontFamily=Helvetica;fontSize=11;fontColor=default;labelBackgroundColor=default;endArrow=classic;" edge="1" parent="1" source="P6jtDzbjxeo_bBpYVfSY-5" target="P6jtDzbjxeo_bBpYVfSY-22">
          <mxGeometry relative="1" as="geometry" />
        </mxCell>
        <mxCell id="P6jtDzbjxeo_bBpYVfSY-5" value="Cloth" style="rounded=0;whiteSpace=wrap;html=1;fillColor=#d80073;fontColor=#ffffff;strokeColor=#A50040;" vertex="1" parent="1">
          <mxGeometry x="1670" y="150" width="120" height="60" as="geometry" />
        </mxCell>
        <mxCell id="P6jtDzbjxeo_bBpYVfSY-16" value="" style="rounded=0;orthogonalLoop=1;jettySize=auto;html=1;" edge="1" parent="1" source="P6jtDzbjxeo_bBpYVfSY-6" target="P6jtDzbjxeo_bBpYVfSY-15">
          <mxGeometry relative="1" as="geometry" />
        </mxCell>
        <mxCell id="P6jtDzbjxeo_bBpYVfSY-26" style="edgeStyle=none;rounded=0;orthogonalLoop=1;jettySize=auto;html=1;exitX=0.5;exitY=1;exitDx=0;exitDy=0;strokeColor=default;align=center;verticalAlign=middle;fontFamily=Helvetica;fontSize=11;fontColor=default;labelBackgroundColor=default;endArrow=classic;" edge="1" parent="1" source="P6jtDzbjxeo_bBpYVfSY-6" target="P6jtDzbjxeo_bBpYVfSY-22">
          <mxGeometry relative="1" as="geometry" />
        </mxCell>
        <mxCell id="P6jtDzbjxeo_bBpYVfSY-6" value="Plank" style="rounded=0;whiteSpace=wrap;html=1;fillColor=#d80073;fontColor=#ffffff;strokeColor=#A50040;" vertex="1" parent="1">
          <mxGeometry x="1860" y="150" width="120" height="60" as="geometry" />
        </mxCell>
        <mxCell id="P6jtDzbjxeo_bBpYVfSY-23" value="" style="edgeStyle=none;rounded=0;orthogonalLoop=1;jettySize=auto;html=1;strokeColor=default;align=center;verticalAlign=middle;fontFamily=Helvetica;fontSize=11;fontColor=default;labelBackgroundColor=default;endArrow=classic;" edge="1" parent="1" source="P6jtDzbjxeo_bBpYVfSY-7" target="P6jtDzbjxeo_bBpYVfSY-22">
          <mxGeometry relative="1" as="geometry" />
        </mxCell>
        <mxCell id="P6jtDzbjxeo_bBpYVfSY-7" value="Glass Bottle" style="rounded=0;whiteSpace=wrap;html=1;fillColor=#d80073;fontColor=#ffffff;strokeColor=#A50040;" vertex="1" parent="1">
          <mxGeometry x="2050" y="150" width="120" height="60" as="geometry" />
        </mxCell>
        <mxCell id="P6jtDzbjxeo_bBpYVfSY-21" value="" style="edgeStyle=none;rounded=0;orthogonalLoop=1;jettySize=auto;html=1;strokeColor=default;align=center;verticalAlign=middle;fontFamily=Helvetica;fontSize=11;fontColor=default;labelBackgroundColor=default;endArrow=classic;" edge="1" parent="1" source="P6jtDzbjxeo_bBpYVfSY-8" target="P6jtDzbjxeo_bBpYVfSY-19">
          <mxGeometry relative="1" as="geometry" />
        </mxCell>
        <mxCell id="P6jtDzbjxeo_bBpYVfSY-8" value="Plastic Thread" style="rounded=0;whiteSpace=wrap;html=1;" vertex="1" parent="1">
          <mxGeometry x="1120" y="350" width="120" height="60" as="geometry" />
        </mxCell>
        <mxCell id="P6jtDzbjxeo_bBpYVfSY-10" value="Steel" style="rounded=0;whiteSpace=wrap;html=1;" vertex="1" parent="1">
          <mxGeometry x="1295" y="350" width="120" height="60" as="geometry" />
        </mxCell>
        <mxCell id="P6jtDzbjxeo_bBpYVfSY-13" value="Rubber" style="rounded=0;whiteSpace=wrap;html=1;" vertex="1" parent="1">
          <mxGeometry x="1480" y="470" width="120" height="60" as="geometry" />
        </mxCell>
        <mxCell id="P6jtDzbjxeo_bBpYVfSY-15" value="Cart Container" style="rounded=0;whiteSpace=wrap;html=1;fontStyle=0" vertex="1" parent="1">
          <mxGeometry x="1860" y="470" width="120" height="60" as="geometry" />
        </mxCell>
        <mxCell id="P6jtDzbjxeo_bBpYVfSY-19" value="Strong Thread" style="rounded=0;whiteSpace=wrap;html=1;" vertex="1" parent="1">
          <mxGeometry x="1120" y="590" width="120" height="60" as="geometry" />
        </mxCell>
        <mxCell id="P6jtDzbjxeo_bBpYVfSY-22" value="Cutting Machie" style="whiteSpace=wrap;html=1;rounded=0;fillColor=#0050ef;fontColor=#ffffff;strokeColor=#001DBC;" vertex="1" parent="1">
          <mxGeometry x="2050" y="350" width="120" height="60" as="geometry" />
        </mxCell>
        <mxCell id="P6jtDzbjxeo_bBpYVfSY-29" value="Press Macbine" style="whiteSpace=wrap;html=1;rounded=0;fillColor=#0050ef;fontColor=#ffffff;strokeColor=#001DBC;" vertex="1" parent="1">
          <mxGeometry x="2050" y="470" width="120" height="60" as="geometry" />
        </mxCell>
      </root>
    </mxGraphModel>
  </diagram>
</mxfile>
